<svg xmlns="http://www.w3.org/2000/svg" xmlns:xlink="http://www.w3.org/1999/xlink" width="405.7157829525132" height="460.01562500000006" viewBox="0 0 312.5 354.3241077937698" class="css-1j8o68f"><defs id="SvgjsDefs1006"></defs><g id="SvgjsG1007" featurekey="rootContainer" transform="matrix(6.3004009968354175,0,0,6.3004009968354175,0.00004657900802957603,0.02629627555398628)" fill="#111111"><path xmlns="http://www.w3.org/2000/svg" d="M23.11 55.78L1.69 43.41A3.39 3.39 0 0 1 0 40.48V15.75a3.39 3.39 0 0 1 1.69-2.94L23.11.45a3.39 3.39 0 0 1 3.39 0l21.41 12.37a3.39 3.39 0 0 1 1.69 2.94v24.72a3.39 3.39 0 0 1-1.69 2.94L26.5 55.78a3.39 3.39 0 0 1-3.39 0z"></path></g><g id="SvgjsG1008" featurekey="nameFeature-0" transform="matrix(1.0288065359104672,0,0,1.0288065359104672,53.53086323455387,146.01234686365575)" fill="#f6f6f6"><path d="M17.52 17.6 l-0.56 0 c-0.52 -1.52 -1.88 -3.72 -5.56 -3.72 c-4.36 0 -5.12 3.2 -5.12 4.6 c0 3.16 2.64 4.24 4.68 5.04 c4.36 1.68 5.12 1.96 6.52 3.12 c1.84 1.48 2.24 3.6 2.24 5.12 c0 4.16 -2.92 8.92 -10.04 8.92 c-2.64 0 -5.2 -0.64 -7.28 -2.2 c0.6 -2.04 0.68 -3.24 0.72 -3.76 l0.52 0 c1.16 2.4 3.52 4.16 6.68 4.16 c4.2 0 5.92 -2.76 5.92 -5.32 c0 -3.24 -2.28 -4.44 -4.96 -5.52 c-4.68 -1.96 -5.2 -2.16 -6.28 -3.12 c-1.36 -1.12 -2 -3.12 -2 -4.96 c0 -5.16 4.16 -7.76 8.88 -7.76 c3.12 0 5.84 1.2 6.8 1.84 c-0.32 0.6 -1.04 2.2 -1.16 3.56 z M30.96 40.72 l-1.6 -3.96 c-1.2 -2.84 -3.08 -7.36 -4.28 -10.2 c-1.16 -2.84 -1.4 -3.4 -2.6 -5.88 c0.68 0.16 1.28 0.24 2.52 0.24 c0.88 0 1.36 0 2.16 -0.24 c0.36 1.08 2.96 8.36 5 13.28 c0.28 0.68 0.6 1.36 0.84 1.36 c0.44 0 3.76 -8.12 5.68 -14.64 c0.44 0.12 1.04 0.24 1.76 0.24 c0.76 0 1.28 -0.12 1.6 -0.24 c-0.72 1.12 -1.08 1.88 -4.24 8.8 c-0.44 0.96 -0.88 1.92 -1.36 2.88 c-2.72 5.92 -5.6 12.16 -7.36 18.12 c-0.28 -0.12 -0.8 -0.24 -1.4 -0.24 c-0.52 0 -1.08 0.08 -1.8 0.24 c1.76 -3.28 3.48 -6.48 5.08 -9.76 z M45.88 29.2 c0 -2.64 -0.12 -5.72 -0.2 -8.52 c0.72 0.12 1.24 0.24 2 0.24 s1.28 -0.12 1.96 -0.24 c-0.04 0.6 -0.16 3.24 -0.2 3.8 c1.04 -1.88 3.24 -3.92 7.04 -3.92 c6.56 0 6.88 4.68 6.88 6.96 c0 0.4 -0.16 7.16 -0.16 8.52 c0 0.76 0.04 3.56 0.12 4.16 c-0.56 -0.16 -1.04 -0.24 -2.04 -0.24 c-1.04 0 -1.52 0.08 -2.12 0.24 c0.36 -4.28 0.36 -8.68 0.36 -9.4 c0 -4 -0.2 -7.8 -4.64 -7.8 c-2.12 0 -3.8 0.96 -4.76 2.76 c-0.72 1.4 -0.72 5.92 -0.72 7.8 c0 3.12 0.2 5.16 0.32 6.64 c-0.56 -0.12 -1.2 -0.24 -2.12 -0.24 s-1.52 0.12 -2.12 0.24 c0.2 -2.44 0.4 -5 0.4 -11 z M85.12 36.72 l0.36 0.12 c-0.36 1.08 -0.4 1.76 -0.44 2.32 c-1.2 0.8 -3.28 1.56 -5.92 1.56 c-7.6 0 -10.6 -5 -10.6 -10.08 c0 -6.12 3.96 -10.16 10.56 -10.16 c2.36 0 4.6 0.44 6.6 1.6 c-0.6 1.52 -0.76 2.64 -0.88 3.4 l-0.48 0 c-1.16 -2.96 -3.44 -3.32 -4.88 -3.32 c-4.44 0 -6.76 3.16 -6.76 8.16 c0 7.36 4.68 8.56 7 8.56 c1.64 0 4 -0.6 5.44 -2.16 z  M113.44000000000001 34.64 l0.48 0.2 c-0.2 0.92 -0.36 1.76 -0.44 3.24 c-2.96 1.76 -6.4 2.6 -9.92 2.6 c-9.28 0 -14.68 -6.08 -14.68 -14.32 c0 -7.72 4.8 -14.12 15.32 -14.12 c4.84 0 8.08 1.32 9.88 2.12 c-0.6 1.64 -0.76 2.16 -0.96 4 l-0.4 0 c-1.08 -2.28 -4.6 -4.4 -8.68 -4.4 c-6.32 0 -10.52 4.64 -10.52 12.36 c0 8.32 5.16 12.44 10.84 12.44 c1.8 0 5.96 -0.4 9.08 -4.12 z M119.28 24.8 c-0.04 -9.12 -0.04 -10.12 -0.28 -14.12 c0.68 0.12 1.32 0.24 2.08 0.24 c0.72 0 1.4 -0.12 2.12 -0.24 c-0.2 5.8 -0.28 8.08 -0.28 15 c0 6.28 0.08 8.92 0.32 14.52 c-0.6 -0.16 -1.08 -0.28 -2.16 -0.28 c-1 0 -1.44 0.12 -2.04 0.28 c0.24 -4.04 0.24 -5.16 0.24 -15.4 z M130.52 30.04 c0 -4.56 -0.16 -7.12 -0.32 -9.2 c0.56 0.16 1.04 0.24 1.96 0.24 s1.48 -0.08 2.08 -0.24 c-0.12 2.2 -0.24 4 -0.24 10.52 c0 1.84 0.04 2.52 0.28 8.84 c-0.52 -0.16 -0.92 -0.24 -1.96 -0.24 c-1.12 0 -1.48 0.08 -2.08 0.24 c0.16 -3.04 0.28 -7.04 0.28 -10.16 z M134.52 14.280000000000001 c0 1.2 -1 2.16 -2.2 2.16 c-1.16 0 -2.16 -0.96 -2.16 -2.16 c0 -1.24 1 -2.2 2.16 -2.2 c1.2 0 2.2 0.96 2.2 2.2 z M158.12 30.48 l-14.36 0 c0 1.12 0 3.4 1.08 5.24 c1.84 3 4.44 3.12 5.6 3.12 c3.92 0 5.76 -2.4 6.36 -3.24 l0.48 0.12 c-0.24 1.12 -0.24 1.76 -0.28 2.4 c-1.76 1.68 -4.2 2.6 -7.44 2.6 c-6.08 0 -9.8 -3.84 -9.8 -10 c0 -5.52 3.04 -10.16 9.6 -10.16 c8.92 0 8.8 7.76 8.76 9.92 z M143.8 28.8 l10.32 0 c0 -1.32 0 -6.64 -4.8 -6.64 c-3.48 0 -5.16 2.64 -5.52 6.64 z M163.68 29.2 c0 -2.64 -0.12 -5.72 -0.2 -8.52 c0.72 0.12 1.24 0.24 2 0.24 s1.28 -0.12 1.96 -0.24 c-0.04 0.6 -0.16 3.24 -0.2 3.8 c1.04 -1.88 3.24 -3.92 7.04 -3.92 c6.56 0 6.88 4.68 6.88 6.96 c0 0.4 -0.16 7.16 -0.16 8.52 c0 0.76 0.04 3.56 0.12 4.16 c-0.56 -0.16 -1.04 -0.24 -2.04 -0.24 c-1.04 0 -1.52 0.08 -2.12 0.24 c0.36 -4.28 0.36 -8.68 0.36 -9.4 c0 -4 -0.2 -7.8 -4.64 -7.8 c-2.12 0 -3.8 0.96 -4.76 2.76 c-0.72 1.4 -0.72 5.92 -0.72 7.8 c0 3.12 0.2 5.16 0.32 6.64 c-0.56 -0.12 -1.2 -0.24 -2.12 -0.24 s-1.52 0.12 -2.12 0.24 c0.2 -2.44 0.4 -5 0.4 -11 z M188.64000000000001 29.28 l0 -6.32 c-1.28 0 -1.52 0.04 -3.2 0.16 c0.04 -0.28 0.08 -0.56 0.08 -1 c0 -0.4 -0.04 -0.68 -0.08 -1 c0.32 0.04 0.76 0.08 1.28 0.12 s1.16 0.08 1.92 0.08 c0 -1.4 0 -2.36 -0.08 -4.44 c1.12 -0.2 3.32 -1.4 4.08 -1.84 c-0.2 3.32 -0.2 3.64 -0.28 6.28 c1.48 0 2.96 -0.08 4.32 -0.2 c-0.04 0.32 -0.08 0.56 -0.08 1 s0.04 0.68 0.08 0.96 c-1 -0.04 -2.68 -0.12 -4.32 -0.12 c-0.16 3.64 -0.2 7.32 -0.2 10.96 c0 3.24 0.52 5 2.8 5 c0.36 0 1.32 -0.16 1.84 -0.24 c-0.08 0.44 -0.08 0.6 0 1.12 c-0.92 0.52 -2.48 0.76 -3.4 0.76 c-2.28 0 -3.6 -1.24 -4.28 -2.4 c-0.32 -0.56 -0.56 -1.24 -0.56 -3.76 c0 -0.64 0 -1.36 0.08 -5.12 z"></path></g></svg>